<svg width="32" height="32" viewBox="0 0 32 32" fill="none" xmlns="http://www.w3.org/2000/svg">
<g clip-path="url(#clip0_249_1039)">
<circle cx="16" cy="16" r="15" fill="white" stroke="#4758DC" stroke-width="2"/>
<path d="M21 18.88C19.65 18.88 18.8 19.31 18.05 19.68C17.4 20 16.87 20.28 16 20.28C15.1 20.28 14.6 20.03 13.95 19.68C13.2 19.3 12.38 18.88 11 18.88C9.62 18.88 8.8 19.31 8.05 19.68C7.4 20 6.88 20.28 6 20.28V22.23C7.35 22.23 8.2 21.8 8.95 21.43C9.6 21.08 10.1 20.83 11 20.83C11.9 20.83 12.4 21.08 13.05 21.43C13.8 21.81 14.62 22.23 16 22.23C17.38 22.23 18.2 21.8 18.95 21.43C19.6 21.08 20.1 20.83 21 20.83C21.9 20.83 22.4 21.08 23.05 21.43C23.8 21.81 24.63 22.23 26 22.23V20.28C25.1 20.28 24.6 20.03 23.95 19.68C23.2 19.3 22.35 18.88 21 18.88ZM23.95 10.8C23.2 10.42 22.37 10 21 10C19.63 10 18.8 10.42 18.05 10.8C17.4 11.12 16.87 11.4 16 11.4C15.1 11.4 14.6 11.15 13.95 10.8C13.2 10.43 12.38 10 11 10C9.62 10 8.8 10.42 8.05 10.8C7.4 11.13 6.88 11.4 6 11.4V13.33C7.35 13.33 8.2 12.9 8.95 12.53C9.6 12.2 10.12 11.93 11 11.93C11.88 11.93 12.4 12.18 13.05 12.53C13.8 12.91 14.62 13.33 16 13.33C17.38 13.33 18.2 12.9 18.95 12.53C19.6 12.21 20.13 11.93 21 11.93C21.9 11.93 22.4 12.18 23.05 12.53C23.8 12.91 24.63 13.33 26 13.33V11.38C25.1 11.38 24.6 11.13 23.95 10.8ZM21 14.43C19.65 14.43 18.8 14.86 18.05 15.23C17.4 15.58 16.9 15.83 16 15.83C15.1 15.83 14.6 15.58 13.95 15.23C13.2 14.85 12.38 14.43 11 14.43C9.62 14.43 8.8 14.86 8.05 15.23C7.4 15.58 6.9 15.83 6 15.83V17.78C7.35 17.78 8.2 17.35 8.95 16.98C9.6 16.66 10.13 16.38 11 16.38C11.87 16.38 12.4 16.63 13.05 16.98C13.8 17.36 14.62 17.78 16 17.78C17.38 17.78 18.2 17.35 18.95 16.98C19.6 16.66 20.13 16.38 21 16.38C21.9 16.38 22.4 16.63 23.05 16.98C23.8 17.36 24.63 17.78 26 17.78V15.83C25.1 15.83 24.6 15.58 23.95 15.23C23.2 14.85 22.35 14.43 21 14.43Z" fill="#4758DC"/>
</g>
<defs>
<clipPath id="clip0_249_1039">
<rect width="32" height="32" fill="white"/>
</clipPath>
</defs>
</svg>
