<svg width="24" height="24" viewBox="0 0 24 24" fill="none" xmlns="http://www.w3.org/2000/svg">
<path d="M3.85938 14.7344L10.918 21.3242C11.2109 21.5977 11.5977 21.75 12 21.75C12.4023 21.75 12.7891 21.5977 13.082 21.3242L20.1406 14.7344C21.3281 13.6289 22 12.0781 22 10.457V10.2305C22 7.5 20.0273 5.17187 17.3359 4.72265C15.5547 4.42578 13.7422 5.00781 12.4688 6.28125L12 6.75L11.5312 6.28125C10.2578 5.00781 8.44531 4.42578 6.66406 4.72265C3.97266 5.17187 2 7.5 2 10.2305V10.457C2 12.0781 2.67187 13.6289 3.85938 14.7344Z" fill="#404040"/>
</svg>
