<svg width="24" height="24" viewBox="0 0 24 24" fill="none" xmlns="http://www.w3.org/2000/svg">
<path d="M9.625 4.1875C9.625 4.01562 9.76562 3.875 9.9375 3.875H13.0625C13.2344 3.875 13.375 4.01562 13.375 4.1875V7H9.625V4.1875ZM16.5 7H15.25V4.1875C15.25 2.98047 14.2695 2 13.0625 2H9.9375C8.73047 2 7.75 2.98047 7.75 4.1875V7H6.5C5.12109 7 4 8.12109 4 9.5V18.25C4 19.6289 5.12109 20.75 6.5 20.75C6.5 21.4414 7.05859 22 7.75 22C8.44141 22 9 21.4414 9 20.75H14C14 21.4414 14.5586 22 15.25 22C15.9414 22 16.5 21.4414 16.5 20.75C17.8789 20.75 19 19.6289 19 18.25V9.5C19 8.12109 17.8789 7 16.5 7ZM8.375 10.75H14.625C14.9688 10.75 15.25 11.0312 15.25 11.375C15.25 11.7188 14.9688 12 14.625 12H8.375C8.03125 12 7.75 11.7188 7.75 11.375C7.75 11.0312 8.03125 10.75 8.375 10.75ZM8.375 15.75H14.625C14.9688 15.75 15.25 16.0312 15.25 16.375C15.25 16.7188 14.9688 17 14.625 17H8.375C8.03125 17 7.75 16.7188 7.75 16.375C7.75 16.0312 8.03125 15.75 8.375 15.75Z" fill="#404040"/>
</svg>
