<svg width="24" height="24" viewBox="0 0 24 24" fill="none" xmlns="http://www.w3.org/2000/svg">
<path d="M10.7951 4.21869C11.0069 3.80897 10.8472 3.30549 10.441 3.09369C10.0347 2.88188 9.52778 3.0416 9.31597 3.44785L6.08333 9.6666H3.11111C2.49653 9.6666 2 10.1631 2 10.7777C2 11.3923 2.49653 11.8888 3.11111 11.8888L4.91319 19.0937C5.15972 20.0833 6.04861 20.7777 7.06944 20.7777H16.9306C17.9514 20.7777 18.8403 20.0833 19.0868 19.0937L20.8889 11.8888C21.5035 11.8888 22 11.3923 22 10.7777C22 10.1631 21.5035 9.6666 20.8889 9.6666H17.9167L14.684 3.44785C14.4722 3.0416 13.9688 2.88188 13.559 3.09369C13.1493 3.30549 12.9931 3.80897 13.2049 4.21869L16.0382 9.6666H7.96181L10.7951 4.21869ZM8.66667 13.5555V16.8888C8.66667 17.1944 8.41667 17.4444 8.11111 17.4444C7.80556 17.4444 7.55556 17.1944 7.55556 16.8888V13.5555C7.55556 13.2499 7.80556 12.9999 8.11111 12.9999C8.41667 12.9999 8.66667 13.2499 8.66667 13.5555ZM12 12.9999C12.3056 12.9999 12.5556 13.2499 12.5556 13.5555V16.8888C12.5556 17.1944 12.3056 17.4444 12 17.4444C11.6944 17.4444 11.4444 17.1944 11.4444 16.8888V13.5555C11.4444 13.2499 11.6944 12.9999 12 12.9999ZM16.4444 13.5555V16.8888C16.4444 17.1944 16.1944 17.4444 15.8889 17.4444C15.5833 17.4444 15.3333 17.1944 15.3333 16.8888V13.5555C15.3333 13.2499 15.5833 12.9999 15.8889 12.9999C16.1944 12.9999 16.4444 13.2499 16.4444 13.5555Z" fill="#404040"/>
</svg>
