<svg width="24" height="24" viewBox="0 0 24 24" fill="none" xmlns="http://www.w3.org/2000/svg">
<path d="M22.243 11.9824C22.243 12.6152 21.7156 13.1109 21.118 13.1109H19.993L20.0176 18.743C20.0176 18.8379 20.0105 18.9328 20 19.0277V19.5938C20 20.3707 19.3707 21 18.5938 21H18.0312C17.9926 21 17.9539 21 17.9152 20.9965C17.866 21 17.8168 21 17.7676 21H16.625H15.7812C15.0043 21 14.375 20.3707 14.375 19.5938V18.75V16.5C14.375 15.8777 13.8723 15.375 13.25 15.375H11C10.3777 15.375 9.875 15.8777 9.875 16.5V18.75V19.5938C9.875 20.3707 9.2457 21 8.46875 21H7.625H6.50352C6.45078 21 6.39805 20.9965 6.34531 20.993C6.30312 20.9965 6.26094 21 6.21875 21H5.65625C4.8793 21 4.25 20.3707 4.25 19.5938V15.6562C4.25 15.6246 4.25 15.5895 4.25352 15.5578V13.1109H3.125C2.49219 13.1109 2 12.6187 2 11.9824C2 11.666 2.10547 11.3848 2.35156 11.1387L11.3656 3.28125C11.6117 3.03516 11.893 3 12.1391 3C12.3852 3 12.6664 3.07031 12.8773 3.24609L21.8562 11.1387C22.1375 11.3848 22.2781 11.666 22.243 11.9824Z" fill="#404040"/>
</svg>
