<svg width="24" height="24" viewBox="0 0 24 24" fill="none" xmlns="http://www.w3.org/2000/svg">
<path d="M19.25 2C18.625 2 14.25 3.25 14.25 8.875V13.25C14.25 14.6289 15.3711 15.75 16.75 15.75H18V20.75C18 21.4414 18.5586 22 19.25 22C19.9414 22 20.5 21.4414 20.5 20.75V15.75V11.375V3.25C20.5 2.55859 19.9414 2 19.25 2ZM5.5 2.625C5.5 2.30469 5.26172 2.03906 4.94141 2.00391C4.62109 1.96875 4.33594 2.17969 4.26562 2.48828L3.08203 7.8125C3.02734 8.05859 3 8.30859 3 8.55859C3 10.3516 4.37109 11.8242 6.125 11.9844V20.75C6.125 21.4414 6.68359 22 7.375 22C8.06641 22 8.625 21.4414 8.625 20.75V11.9844C10.3789 11.8242 11.75 10.3516 11.75 8.55859C11.75 8.30859 11.7227 8.05859 11.668 7.8125L10.4844 2.48828C10.4141 2.17578 10.1211 1.96875 9.80469 2.00391C9.48828 2.03906 9.25 2.30469 9.25 2.625V7.86719C9.25 8.07812 9.07812 8.25 8.86719 8.25C8.66797 8.25 8.50391 8.09766 8.48438 7.89844L7.99609 2.57031C7.96875 2.24609 7.69922 2 7.375 2C7.05078 2 6.78125 2.24609 6.75391 2.57031L6.26953 7.89844C6.25 8.09766 6.08594 8.25 5.88672 8.25C5.67578 8.25 5.50391 8.07812 5.50391 7.86719V2.625H5.5ZM7.38672 8.5625H7.375H7.36328L7.375 8.53516L7.38672 8.5625Z" fill="#404040"/>
</svg>
