<svg width="24" height="24" viewBox="0 0 24 24" fill="none" xmlns="http://www.w3.org/2000/svg">
<path d="M6.75 2C4.67969 2 3 3.67969 3 5.75V15.75C3 17.625 4.375 19.1758 6.16797 19.457L4.37109 21.2539C4.09766 21.5273 4.29297 22 4.67969 22H6.23047C6.5625 22 6.87891 21.8672 7.11328 21.6328L9.25 19.5H14.25L16.3828 21.6328C16.6172 21.8672 16.9336 22 17.2656 22H18.8203C19.2109 22 19.4062 21.5273 19.1289 21.2539L17.332 19.457C19.1289 19.1797 20.5 17.625 20.5 15.75V5.75C20.5 3.67969 18.8203 2 16.75 2H6.75ZM5.5 7C5.5 6.30859 6.05859 5.75 6.75 5.75H9.875C10.5664 5.75 11.125 6.30859 11.125 7V10.75C11.125 11.4414 10.5664 12 9.875 12H6.75C6.05859 12 5.5 11.4414 5.5 10.75V7ZM13.625 5.75H16.75C17.4414 5.75 18 6.30859 18 7V10.75C18 11.4414 17.4414 12 16.75 12H13.625C12.9336 12 12.375 11.4414 12.375 10.75V7C12.375 6.30859 12.9336 5.75 13.625 5.75ZM5.5 15.75C5.5 15.4185 5.6317 15.1005 5.86612 14.8661C6.10054 14.6317 6.41848 14.5 6.75 14.5C7.08152 14.5 7.39946 14.6317 7.63388 14.8661C7.8683 15.1005 8 15.4185 8 15.75C8 16.0815 7.8683 16.3995 7.63388 16.6339C7.39946 16.8683 7.08152 17 6.75 17C6.41848 17 6.10054 16.8683 5.86612 16.6339C5.6317 16.3995 5.5 16.0815 5.5 15.75ZM16.75 14.5C17.0815 14.5 17.3995 14.6317 17.6339 14.8661C17.8683 15.1005 18 15.4185 18 15.75C18 16.0815 17.8683 16.3995 17.6339 16.6339C17.3995 16.8683 17.0815 17 16.75 17C16.4185 17 16.1005 16.8683 15.8661 16.6339C15.6317 16.3995 15.5 16.0815 15.5 15.75C15.5 15.4185 15.6317 15.1005 15.8661 14.8661C16.1005 14.6317 16.4185 14.5 16.75 14.5Z" fill="#404040"/>
</svg>
